# xmcd
#
# Track frame offsets: 
#        183
#        26113
#        42958
#        66133
#
# Disc length: 1069 seconds
#
# Revision: 3
# Processed by: cddbd v1.5.2PL0 Copyright (c) Steve Scherf et al.
# Submitted via: ExactAudioCopy v1.3
#
DISCID=30042b04
DTITLE=Joe Cocker - Unchain My Heart
DYEAR=1992
DGENRE=Soul
TTITLE0=Unchain My Heart (Live)
TTITLE1=Cry Me A River (Live)
TTITLE2=Feelin' Alright? (Live)
TTITLE3=You Are So Beautiful (Live)
EXTD=
EXTT0=
EXTT1=
EXTT2=
EXTT3=
PLAYORDER=
